/* XPM */
static char *d4d82413dd194c6491bcc4e410e6716fHre5Sj2PQy9CA4GH[] = {
/* columns rows colors chars-per-pixel */
"112 131 12 1 ",
"  c None",
". c #000000",
"X c #CF9C9B",
"o c #E3C6C5",
"O c white",
"+ c #B97371",
"@ c #9CC8CC",
"# c #9CC8CD",
"$ c #68989C",
"% c #9DC9CD",
"& c #67979C",
"* c #67979B",
/* pixels */
"                                        ................................                                        ",
"                                        ................................                                        ",
"                                        ................................                                        ",
"                                        ................................                                        ",
"                                ................................................                                ",
"                                ................................................                                ",
"                                ................................................                                ",
"                                ................................................                                ",
"                        ................XXXXXXXXXXXXXXXXXXXXXXXXXXXXXXXX................                        ",
"                        ................XXXXXXXXXXXXXXXXXXXXXXXXXXXXXXXX................                        ",
"                        ................XXXXXXXXXXXXXXXXXXXXXXXXXXXXXXXX................                        ",
"                        ................XXXXXXXXXXXXXXXXXXXXXXXXXXXXXXXX................                        ",
"                    ............XXXXooooooooooooooooooooooooooooooooooooooooXXXX............                    ",
"                    ............XXXXooooooooooooooooooooooooooooooooooooooooXXXX............                    ",
"                    ............XXXXooooooooooooooooooooooooooooooooooooooooXXXX............                    ",
"                    ............XXXXooooooooooooooooooooooooooooooooooooooooXXXX............                    ",
"                ........XXXXooooooooooooooooooooooooooooooooooooooooooooooooooooooooXXXX........                ",
"                ........XXXXooooooooooooooooooooooooooooooooooooooooooooooooooooooooXXXX........                ",
"                ........XXXXooooooooooooooooooooooooooooooooooooooooooooooooooooooooXXXX........                ",
"                ........XXXXooooooooooooooooooooooooooooooooooooooooooooooooooooooooXXXX........                ",
"            ........XXXXooooooooooooooooooooooooooooooooooooooooooooooooooooooooooooooooXXXX........            ",
"            ........XXXXooooooooooooooooooooooooooooooooooooooooooooooooooooooooooooooooXXXX........            ",
"            ........XXXXooooooooooooooooooooooooooooooooooooooooooooooooooooooooooooooooXXXX........            ",
"            ........XXXXooooooooooooooooooooooooooooooooooooooooooooooooooooooooooooooooXXXX........            ",
"        ........XXXXooooooooooooooooooooooooooooooooooooooooooooooooooooooooooooooooooooooooXXXX........        ",
"        ........XXXXooooooooooooooooooooooooooooooooooooooooooooooooooooooooooooooooooooooooXXXX........        ",
"        ........XXXXooooooooooooooooooooooooooooooooooooooooooooooooooooooooooooooooooooooooXXXX........        ",
"        ........XXXXooooooooooooooooooooooooooooooooooooooooooooooooooooooooooooooooooooooooXXXX........        ",
"        ........oooooooooooooooooooooooooooooooooooooooooooooooooooooooooooooooooooooooooooooooo........        ",
"        ........oooooooooooooooooooooooooooooooooooooooooooooooooooooooooooooooooooooooooooooooo........        ",
"        ........oooooooooooooooooooooooooooooooooooooooooooooooooooooooooooooooooooooooooooooooo........        ",
"        ........oooooooooooooooooooooooooooooooooooooooooooooooooooooooooooooooooooooooooooooooo........        ",
"    ........XXXXooooooooooooooooooooooooooooooooooooooooooooooooooooooooooooooooooooooooooooooooXXXX........    ",
"    ........XXXXooooooooooooooooooooooooooooooooooooooooooooooooooooooooooooooooooooooooooooooooXXXX........    ",
"    ........XXXXooooooooooooooooooooooooooooooooooooooooooooooooooooooooooooooooooooooooooooooooXXXX........    ",
"    ........XXXXooooooooooooooooooooooooooooooooooooooooooooooooooooooooooooooooooooooooooooooooXXXX........    ",
"    ........oooooooooooooooooooooooooooooooooooooooooooooooooooooooooooooooooooooooooooooooooooooooo........    ",
"    ........oooooooooooooooooooooooooooooooooooooooooooooooooooooooooooooooooooooooooooooooooooooooo........    ",
"    ........oooooooooooooooooooooooooooooooooooooooooooooooooooooooooooooooooooooooooooooooooooooooo........    ",
"    ........oooooooooooooooooooooooooooooooooooooooooooooooooooooooooooooooooooooooooooooooooooooooo........    ",
"........XXXXooooooooooooooooooooooooooooooooooooooooooooooooooooooooooooooooooooooooooooooooooooooooXXXX........",
"........XXXXooooooooooooooooooooooooooooooooooooooooooooooooooooooooooooooooooooooooooooooooooooooooXXXX........",
"........XXXXooooooooooooooooooooooooooooooooooooooooooooooooooooooooooooooooooooooooooooooooooooooooXXXX........",
"........XXXXooooooooooooooooooooooooooooooooooooooooooooooooooooooooooooooooooooooooooooooooooooooooXXXX........",
"........XXXXooooXXXX................XXXXooooooooooooooooooooooooooooooooXXXX................XXXXooooXXXX........",
"........XXXXooooXXXX................XXXXooooooooooooooooooooooooooooooooXXXX................XXXXooooXXXX........",
"........XXXXooooXXXX................XXXXooooooooooooooooooooooooooooooooXXXX................XXXXooooXXXX........",
"........XXXXooooXXXX................XXXXooooooooooooooooooooooooooooooooXXXX................XXXXooooXXXX........",
"........XXXXoooo....OOOOOOOO............oooooooooooooooooooooooooooooooo....OOOOOOOO............ooooXXXX........",
"........XXXXoooo....OOOOOOOO............oooooooooooooooooooooooooooooooo....OOOOOOOO............ooooXXXX........",
"........XXXXoooo....OOOOOOOO............oooooooooooooooooooooooooooooooo....OOOOOOOO............ooooXXXX........",
"........XXXXoooo....OOOOOOOO............oooooooooooooooooooooooooooooooo....OOOOOOOO............ooooXXXX........",
"........XXXXXXXX....OOOOOOOO............oooooooooooooooooooooooooooooooo....OOOOOOOO............XXXXXXXX........",
"........XXXXXXXX....OOOOOOOO............oooooooooooooooooooooooooooooooo....OOOOOOOO............XXXXXXXX........",
"........XXXXXXXX....OOOOOOOO............oooooooooooooooooooooooooooooooo....OOOOOOOO............XXXXXXXX........",
"........XXXXXXXX....OOOOOOOO............oooooooooooooooooooooooooooooooo....OOOOOOOO............XXXXXXXX........",
"........++++XXXX........................oooooooo................oooooooo........................XXXX++++........",
"........++++XXXX........................oooooooo................oooooooo........................XXXX++++........",
"........++++XXXX........................oooooooo................oooooooo........................XXXX++++........",
"........++++XXXX........................oooooooo................oooooooo........................XXXX++++........",
"    ........XXXX........................oooo........................oooo........................XXXX........    ",
"    ........XXXX........................oooo........................oooo........................XXXX........    ",
"    ........XXXX........................oooo........................oooo........................XXXX........    ",
"    ........XXXX........................oooo........................oooo........................XXXX........    ",
"    ........++++XXXX................XXXXoooo....OOOOOOOOOOOOOOOO....ooooXXXX................XXXX++++........    ",
"    ........++++XXXX................XXXXoooo....OOOOOOOOOOOOOOOO....ooooXXXX................XXXX++++........    ",
"    ........++++XXXX................XXXXoooo....OOOOOOOOOOOOOOOO....ooooXXXX................XXXX++++........    ",
"    ........++++XXXX................XXXXoooo....OOOOOOOOOOOOOOOO....ooooXXXX................XXXX++++........    ",
"        ........XXXX@@@@@@@@@@@@XXXXoooooooo........................ooooooooXXXX@@@@@@@@@@@@XXXX........        ",
"        ........XXXX@@@@@@@@@@@@XXXXoooooooo........................ooooooooXXXX@@@@@@@@@@@@XXXX........        ",
"        ........XXXX@@@@@@@@@@@@XXXXoooooooo........................ooooooooXXXX@@@@@@@@@@@@XXXX........        ",
"        ........XXXX@@@@@@@@@@@@XXXXoooooooo........................ooooooooXXXX@@@@@@@@@@@@XXXX........        ",
"        ........++++############oooooooooooooooooooooooooooooooooooooooooooooooo############++++........        ",
"        ........++++############oooooooooooooooooooooooooooooooooooooooooooooooo############++++........        ",
"        ........++++############oooooooooooooooooooooooooooooooooooooooooooooooo############++++........        ",
"        ........++++############oooooooooooooooooooooooooooooooooooooooooooooooo############++++........        ",
"            ........$$$$@@@@%%%%oooooooooooooooooooooooooooooooooooooooooooooooo@@@@####&&&&........            ",
"            ........$$$$@@@@%%%%oooooooooooooooooooooooooooooooooooooooooooooooo@@@@####&&&&........            ",
"            ........$$$$@@@@%%%%oooooooooooooooooooooooooooooooooooooooooooooooo@@@@####&&&&........            ",
"            ........$$$$@@@@%%%%oooooooooooooooooooooooooooooooooooooooooooooooo@@@@####&&&&........            ",
"                ........&&&&@@@@XXXXooooooooooooooooooooooooooooooooooooooooXXXX@@@@****........                ",
"                ........&&&&@@@@XXXXooooooooooooooooooooooooooooooooooooooooXXXX@@@@****........                ",
"                ........&&&&@@@@XXXXooooooooooooooooooooooooooooooooooooooooXXXX@@@@****........                ",
"                ........&&&&@@@@XXXXooooooooooooooooooooooooooooooooooooooooXXXX@@@@****........                ",
"                    ............****XXXXooooooooooooooooooooooooooooooooXXXX&&&&............                    ",
"                    ............****XXXXooooooooooooooooooooooooooooooooXXXX&&&&............                    ",
"                    ............****XXXXooooooooooooooooooooooooooooooooXXXX&&&&............                    ",
"                    ............****XXXXooooooooooooooooooooooooooooooooXXXX&&&&............                    ",
"                        ................++++XXXXXXXXXXXXXXXXXXXXXXXX++++................                        ",
"                        ................++++XXXXXXXXXXXXXXXXXXXXXXXX++++................                        ",
"                        ................++++XXXXXXXXXXXXXXXXXXXXXXXX++++................                        ",
"                        ................++++XXXXXXXXXXXXXXXXXXXXXXXX++++................                        ",
"                            ........................................................                            ",
"                            ........................................................                            ",
"                            ........................................................                            ",
"                            ........................................................                            ",
"                        ........XXXXoooo................................ooooXXXX........                        ",
"                        ........XXXXoooo................................ooooXXXX........                        ",
"                        ........XXXXoooo................................ooooXXXX........                        ",
"                        ........XXXXoooo................................ooooXXXX........                        ",
"                    ........XXXXooooooooXXXXXXXXXXXXXXXXXXXXXXXXXXXXXXXXooooooooXXXX........                    ",
"                    ........XXXXooooooooXXXXXXXXXXXXXXXXXXXXXXXXXXXXXXXXooooooooXXXX........                    ",
"                    ........XXXXooooooooXXXXXXXXXXXXXXXXXXXXXXXXXXXXXXXXooooooooXXXX........                    ",
"                    ........XXXXooooooooXXXXXXXXXXXXXXXXXXXXXXXXXXXXXXXXooooooooXXXX........                    ",
"                    ........XXXXoooo....XXXXooooooooooooooooooooooooXXXX....ooooXXXX........                    ",
"                    ........XXXXoooo....XXXXooooooooooooooooooooooooXXXX....ooooXXXX........                    ",
"                    ........XXXXoooo....XXXXooooooooooooooooooooooooXXXX....ooooXXXX........                    ",
"                    ........XXXXoooo....XXXXooooooooooooooooooooooooXXXX....ooooXXXX........                    ",
"                    ........XXXXoooo....oooooooooooooooooooooooooooooooo....ooooXXXX........                    ",
"                    ........XXXXoooo....oooooooooooooooooooooooooooooooo....ooooXXXX........                    ",
"                    ........XXXXoooo....oooooooooooooooooooooooooooooooo....ooooXXXX........                    ",
"                    ........XXXXoooo....oooooooooooooooooooooooooooooooo....ooooXXXX........                    ",
"                        ................ooooooooXXXX........XXXXoooooooo................                        ",
"                        ................ooooooooXXXX........XXXXoooooooo................                        ",
"                        ................ooooooooXXXX........XXXXoooooooo................                        ",
"                        ................ooooooooXXXX........XXXXoooooooo................                        ",
"                            ............oooooooooooo........XXXXoooooooo............                            ",
"                            ............oooooooooooo........XXXXoooooooo............                            ",
"                            ............oooooooooooo........XXXXoooooooo............                            ",
"                            ............oooooooooooo........XXXXoooooooo............                            ",
"                                ............oooooooo........XXXXoooo............                                ",
"                                ............oooooooo........XXXXoooo............                                ",
"                                ............oooooooo........XXXXoooo............                                ",
"                                ............oooooooo........XXXXoooo............                                ",
"                                    ........................................                                    ",
"                                    ........................................                                    ",
"                                    ........................................                                    ",
"                                    ........................................                                    ",
"                                        ............        ............                                        ",
"                                        ............        ............                                        ",
"                                        ............        ............                                        "
};
